<?xml version="1.0" encoding="UTF-8" standalone="no"?>
<!DOCTYPE svg PUBLIC "-//W3C//DTD SVG 1.1//EN" "http://www.w3.org/Graphics/SVG/1.1/DTD/svg11.dtd">
<svg version="1.1" xmlns="http://www.w3.org/2000/svg" xmlns:xlink="http://www.w3.org/1999/xlink" preserveAspectRatio="xMidYMid meet" viewBox="114.05494505494505 114.0549450549445 504.00000000000057 504.0000000000009" width="500" height="500"><defs><path d="M115.05 615.05L115.05 115.05L615.05 115.05L615.05 615.05L115.05 615.05ZM355.27 201.64L350.46 209.15L345.7 216.49L341.01 223.66L336.39 230.68L331.83 237.55L327.35 244.27L322.94 250.86L318.62 257.31L314.38 263.63L310.23 269.83L306.17 275.92L302.21 281.89L298.35 287.76L294.6 293.54L290.95 299.22L287.41 304.82L283.99 310.33L280.7 315.78L277.52 321.15L274.47 326.46L271.55 331.71L268.77 336.92L266.13 342.08L263.63 347.2L261.27 352.28L259.07 357.34L257.02 362.38L255.13 367.4L253.4 372.42L251.83 377.43L250.44 382.44L249.22 387.46L248.18 392.49L247.31 397.55L246.64 402.63L246.15 407.74L245.85 412.89L245.75 418.08L245.85 423.27L246.15 428.41L246.64 433.49L247.31 438.51L248.18 443.46L249.22 448.34L250.44 453.15L251.83 457.88L253.4 462.53L255.13 467.1L257.02 471.57L259.07 475.95L261.27 480.23L263.63 484.41L266.13 488.49L268.77 492.45L271.55 496.3L274.47 500.03L277.52 503.64L280.7 507.13L283.99 510.48L287.41 513.7L290.95 516.78L294.6 519.71L298.35 522.5L302.21 525.14L306.17 527.63L310.23 529.95L314.38 532.12L318.62 534.11L322.94 535.94L327.35 537.59L331.83 539.06L336.39 540.35L341.01 541.45L345.7 542.36L350.46 543.08L355.27 543.59L360.14 543.9L365.05 544.01L369.97 543.9L374.84 543.59L379.65 543.08L384.41 542.36L389.1 541.45L393.72 540.35L398.28 539.06L402.76 537.59L407.17 535.94L411.49 534.11L415.73 532.12L419.88 529.95L423.94 527.63L427.9 525.14L431.76 522.5L435.51 519.71L439.16 516.78L442.7 513.7L446.12 510.48L449.41 507.13L452.59 503.64L455.64 500.03L458.56 496.3L461.34 492.45L463.98 488.49L466.48 484.41L468.84 480.23L471.04 475.95L473.09 471.57L474.98 467.1L476.71 462.53L478.28 457.88L479.67 453.15L480.89 448.34L481.93 443.46L482.8 438.51L483.47 433.49L483.96 428.41L484.26 423.27L484.36 418.08L484.26 412.89L483.96 407.74L483.47 402.63L482.8 397.55L481.93 392.49L480.89 387.46L479.67 382.44L478.28 377.43L476.71 372.42L474.98 367.4L473.09 362.38L471.04 357.34L468.84 352.28L466.48 347.2L463.98 342.08L461.34 336.92L458.56 331.71L455.64 326.46L452.59 321.15L449.41 315.78L446.12 310.33L442.7 304.82L439.16 299.22L435.51 293.54L431.76 287.76L427.9 281.89L423.94 275.92L419.88 269.83L415.73 263.63L411.49 257.31L407.17 250.86L402.76 244.27L398.28 237.55L393.72 230.68L389.1 223.66L384.41 216.49L379.65 209.15L374.84 201.64L369.97 193.96L365.05 186.1L360.14 193.96L355.27 201.64Z" id="bq57BEIvr"></path><linearGradient id="gradientaFk596o6o" gradientUnits="userSpaceOnUse" x1="365.05" y1="115.05" x2="365.05" y2="615.05"><stop style="stop-color: #ffa500;stop-opacity: 1" offset="0%"></stop><stop style="stop-color: #dc143c;stop-opacity: 1" offset="100%"></stop></linearGradient></defs><g><g><use xlink:href="#bq57BEIvr" opacity="1" fill="url(#gradientaFk596o6o)"></use></g></g></svg>